Coordinates
version=1
nRows=11
nColumns=36
inDegrees=yes

Units are S.I. units (second, meters, Newtons, ...)
If the header above contains a line with 'inDegrees', this indicates whether rotational values are in degrees (yes) or radians (no).

endheader
time	pelvis_tilt	pelvis_list	pelvis_rotation	pelvis_tx	pelvis_ty	pelvis_tz	hip_flexion_r	hip_adduction_r	hip_rotation_r	knee_angle_r	knee_angle_r_beta	ankle_angle_r	subtalar_angle_r	mtp_angle_r	hip_flexion_l	hip_adduction_l	hip_rotation_l	knee_angle_l	knee_angle_l_beta	ankle_angle_l	subtalar_angle_l	mtp_angle_l	lumbar_extension	lumbar_bending	lumbar_rotation	arm_flex_r	arm_add_r	arm_rot_r	elbow_flex_r	pro_sup_r	arm_flex_l	arm_add_l	arm_rot_l	elbow_flex_l	pro_sup_l
     29.63333330	      8.56883146	      5.31143597	    174.93145308	      0.49337048	      0.87586192	      0.72466567	     13.53699698	      5.41442104	     -3.54580577	     28.89423557	      0.50429955	     11.55804623	     -7.42248551	     -7.49999987	     36.39572499	     -7.15410734	     -3.11717148	     14.41293790	      0.25155322	    -19.34456783	     -3.68804478	     -7.49999987	     -7.41141540	      5.38721001	      9.75820278	     16.42615621	    -20.75573828	     -1.88093252	     24.55030407	     84.93540596	     10.73933272	     -6.26053953	   -366.39015632	     13.31799114	     89.08144325
     29.65000000	      8.79169567	      5.98114085	    174.58340377	      0.49054532	      0.87270790	      0.72469156	     11.30096117	      6.25414194	     -2.87131769	     28.72484698	      0.50134316	     12.82016591	     -7.33738489	     -7.49999987	     36.32524652	     -8.21392402	     -2.19379472	     10.47219545	      0.18277429	    -18.22501820	     -2.97267210	     -7.49999987	     -6.59137072	      5.98280990	     10.02201869	     16.22940169	    -21.20768154	     -1.83943809	     24.59336633	     84.87920154	      9.79209461	     -6.12991087	   -366.66624165	     12.77261874	     89.05673127
     29.66666670	      8.01323080	      6.38148967	    174.73197665	      0.48826744	      0.87050889	      0.72598047	      8.07276871	      6.53701783	     -2.48682291	     28.29291461	      0.49380451	     14.31428129	     -6.61147324	     -7.49999987	     35.16689292	     -8.77269413	     -1.98680708	      7.36677810	      0.12857453	    -16.02942855	     -2.04209841	     -7.49999987	     -7.12883743	      6.12021178	     10.15338980	     15.91729610	    -21.74560304	     -1.83658097	     24.57374868	     84.76428209	      9.59712514	     -5.91386824	   -367.84200362	     11.28975461	     89.02694417
     29.68333330	      8.12947584	      6.50090409	    174.92351273	      0.48728041	      0.86682049	      0.72675920	      6.50370427	      6.67352751	     -1.82318909	     28.60814282	      0.49930629	     15.74633822	     -6.76594529	     -7.49999987	     35.38953171	     -9.00680905	     -1.60270131	      6.03039821	      0.10525030	    -13.84213423	     -2.25871189	     -7.49999987	     -6.65011049	      6.02478254	      9.91582200	     15.30155494	    -22.02427416	     -1.95917686	     24.47259951	     84.66927972	      8.71432875	     -6.03658776	   -368.13366407	     10.87180542	     88.96716126
     29.70000000	      7.93585671	      6.44110232	    175.13846997	      0.48735710	      0.86361845	      0.72710354	      5.33265219	      6.60283069	     -1.22631579	     29.87216366	      0.52136761	     17.62864915	     -6.90978405	     -7.49999987	     35.40054473	     -8.95967082	     -1.45262596	      5.99386174	      0.10461262	    -11.89922624	     -2.48576002	     -7.49999987	     -6.74919102	      5.65255054	      9.67686793	     14.74556633	    -22.16499630	     -2.18496021	     24.19639098	     84.60243884	      8.21951218	     -6.22129802	   -368.53166058	     10.23281065	     88.96653946
     29.71666670	      7.91488781	      5.99368857	    175.09393222	      0.48728474	      0.86104833	      0.72746070	      5.13481742	      5.95775059	     -1.04871609	     32.48063724	      0.56689406	     20.24286376	     -5.48666750	     -7.49999987	     35.42150585	     -8.60528235	     -2.15313493	      6.66444056	      0.11631643	    -10.57566557	     -2.29589271	     -7.49999987	     -6.65241953	      4.77162516	      9.69341646	     14.15464444	    -21.98238703	     -3.40112117	     23.47089315	     84.27121826	      8.30286050	     -6.39239727	   -370.11606651	      8.69885882	     89.04953747
     29.73333330	      7.71786569	      5.54105144	    175.14498270	      0.48583978	      0.85937836	      0.72897104	      4.94772315	      5.27566836	     -0.60162801	     35.39342996	      0.61773189	     20.93463779	     -5.98693752	     -7.49999987	     34.97033146	     -8.00185012	     -2.59262113	      7.84067702	      0.13684563	    -10.42091533	     -3.22949235	     -7.49999987	     -6.54749380	      4.04635205	      9.33353633	     13.58372653	    -21.85211864	     -3.87909596	     23.04682727	     84.15333211	      8.03737727	     -6.68933105	   -370.55075596	      8.18334746	     89.13908416
     29.75000000	      7.86856381	      4.84892321	    175.25537344	      0.48292246	      0.85742581	      0.73145544	      5.51985394	      4.10896937	     -0.50223224	     39.04617487	      0.68148431	     20.98558571	     -6.26594615	     -7.49999987	     34.66468901	     -7.00862974	     -3.08737423	      9.30419079	      0.16238876	    -11.65880783	     -5.20090445	     -7.49999987	     -5.61553855	      3.18842101	      8.95961027	     12.94567737	    -21.13350867	     -6.60048706	     21.59317143	     83.65488255	      8.05954473	     -6.89486557	   -372.45707557	      6.86461125	     90.12581496
     29.76666670	      7.44627626	      4.12228476	    175.60006083	      0.47921484	      0.85606427	      0.73438856	      5.58726623	      2.76732272	     -0.52621231	     42.72675891	      0.74572262	     19.77414094	     -6.94198503	     -7.49999987	     33.73207959	     -5.79969922	     -3.87502271	     10.99240073	      0.19185359	    -12.99666839	     -6.94658559	     -7.49999987	     -5.44365146	      2.28569026	      8.17586598	     12.28845533	    -20.65823288	     -6.88287821	     21.01759146	     83.65788941	      7.91153230	     -7.25925389	   -372.59921145	      6.32940891	     90.40481781
     29.78333330	      7.00492010	      3.61807002	    176.08157721	      0.47390665	      0.85394541	      0.73872761	      5.83162083	      1.52317216	     -0.87752865	     46.61241172	      0.81354006	     17.67419878	     -7.37074791	     -7.49999987	     32.76469102	     -4.56797175	     -4.07035784	     12.71103937	      0.22184949	    -14.72611723	     -9.46127645	     -7.49999987	     -5.09419252	      1.81757733	      7.24493667	     12.01223059	    -20.10338666	     -7.44568178	     19.62531616	     83.65903818	      7.86600454	     -7.50246960	   -372.67593804	      5.57658470	     91.02969904
     29.80000000	      6.34372401	      3.02975342	    176.45665139	      0.46574352	      0.85091713	      0.74527817	      6.21221179	      0.01062511	     -1.27445389	     51.15354553	      0.89279779	     14.83404354	     -7.41551053	     -7.49999987	     31.21170566	     -3.18282633	     -4.69731112	     14.04474464	      0.24512704	    -15.83063891	    -11.03574223	     -7.49999987	     -5.07261728	      1.29177571	      6.33979232	     11.72797038	    -19.57911478	     -7.57182499	     18.96169633	     83.68997596	      7.73140528	     -7.69862304	   -372.59961862	      5.30014362	     91.36075589
